# xmcd
#
# Track frame offsets:
#	150
#	19583
#	32606
#	48399
#	64065
#	77966
#	95711
#	119136
#	145525
#	162890
#	178435
#	194326
#	208154
#	226418
#	239857
#	258096
#	274912
#	292748
#	309390
#	328299
#
# Disc length: 4638 seconds
#
# Revision: 0
# Processed by: cddbd v1.5.2PL0 Copyright (c) Steve Scherf et al.
# Submitted via: audiograbber 1.83.01
#
DISCID=2f121c14
DTITLE=Various Artist - BOK RADIO GOLDEN OLDIES CD2
DYEAR=2013
DGENRE=Country
TTITLE0=A-HA - CRYING IN THE RAIN
TTITLE1=RACEY - BOY OH BOY
TTITLE2=ROBIN AULD - BABY YOU'VE BEEN GOOD TO ME
TTITLE3=ERASURE - A LITTLE RESPECT
TTITLE4=FRANKIE MILLER - DARLIN
TTITLE5=SMOKIE - IF YOU THINK YOU KNOE HOE TO LOVE ME
TTITLE6=MONIQUE - POWER OF LOVE
TTITLE7=MANGO GROOVE - SPECIAL STAR
TTITLE8=RAY DYLAN - WHY DON'T YOU SPEND THE NIGHT
TTITLE9=FOSTER and ALLEN - I WILL LOVE YOU ALL MY LOVE
TTITLE10=RICHARD MARX - NOW AND FOREVER
TTITLE11=DAVID ESSEX - SILVER DREAM MACHINE
TTITLE12=HEINZ WINCKLER and MONIQUE - STUMBLIN' IN
TTITLE13=MANIE JACSON and PETRO LIEBENBERG - HAVE YOU EVER BEEN LONELY
TTITLE14=AUDRY LANDERS - MANUAL GOODBYE
TTITLE15=BAD BOYS BLUE - LADY IN BLACK
TTITLE16=HADDAWAY - COME BACK
TTITLE17=ROMANZ - RIVERS OF BABYLON
TTITLE18=KURT DARREN - WINTER'S TALE
TTITLE19=NIKI LALO - ENDLESS ROAD
EXTD=
EXTT0=
EXTT1=
EXTT2=
EXTT3=
EXTT4=
EXTT5=
EXTT6=
EXTT7=
EXTT8=
EXTT9=
EXTT10=
EXTT11=
EXTT12=
EXTT13=
EXTT14=
EXTT15=
EXTT16=
EXTT17=
EXTT18=
EXTT19=
PLAYORDER=
